<?xml version="1.0" standalone="no"?>
<!DOCTYPE svg PUBLIC "-//W3C//DTD SVG 20010904//EN"
 "http://www.w3.org/TR/2001/REC-SVG-20010904/DTD/svg10.dtd">
<svg version="1.0" xmlns="http://www.w3.org/2000/svg"
 width="600.000000pt" height="525.000000pt" viewBox="0 0 600.000000 525.000000"
 preserveAspectRatio="xMidYMid meet">
<metadata>
Created by potrace 1.16, written by Peter Selinger 2001-2019
</metadata>
<g transform="translate(0.000000,525.000000) scale(0.100000,-0.100000)"
fill="#000000" stroke="none">
<path d="M2935 5236 c-16 -7 -40 -24 -51 -37 -12 -13 -664 -1137 -1449 -2496
-1033 -1791 -1428 -2484 -1432 -2512 -7 -54 27 -123 75 -153 l37 -23 2855 -3
c2048 -2 2868 0 2900 8 83 21 141 106 124 183 -6 30 -2823 4920 -2870 4983
-43 58 -123 79 -189 50z m1340 -4894 c-701 -1 -1849 -1 -2550 0 l-1275 3 1261
2175 c693 1196 1267 2185 1275 2198 15 23 62 -58 1290 -2175 l1275 -2198
-1276 -3z"/>
<path d="M2893 3556 c-99 -32 -188 -108 -231 -197 -49 -102 -49 -97 12 -839
31 -377 63 -725 71 -775 20 -116 57 -194 106 -218 87 -42 211 -42 298 0 49 24
86 102 106 218 8 50 40 398 71 775 61 739 61 738 13 836 -34 71 -103 140 -176
176 -54 26 -79 32 -146 35 -51 2 -98 -2 -124 -11z"/>
<path d="M2924 1280 c-111 -22 -215 -103 -266 -208 -31 -62 -33 -74 -33 -167
0 -93 2 -105 32 -166 39 -80 111 -150 191 -187 49 -23 70 -27 152 -27 82 0
103 4 153 27 80 38 158 114 193 191 26 55 29 73 29 162 0 93 -2 105 -33 167
-77 157 -248 241 -418 208z"/>
</g>
</svg>
